<svg xmlns="http://www.w3.org/2000/svg" viewBox="0 0 720 520" width="720" height="520"><g transform="rotate(-10 210 280)"><svg x="95" y="96" width="230" height="368" xmlns="http://www.w3.org/2000/svg" viewBox="0 0 220 352" role="img" aria-label="Chrome pack, level 20">
<defs>
<linearGradient id="pkpromochromem" x1="0" y1="0" x2="1" y2="1.3"><stop offset="0" stop-color="#F7F9FC"/><stop offset="0.12" stop-color="#8E99A8"/><stop offset="0.2" stop-color="#E6EBF1"/><stop offset="0.33" stop-color="#4E5866"/><stop offset="0.42" stop-color="#C9D1DB"/><stop offset="0.5" stop-color="#FFFFFF"/><stop offset="0.6" stop-color="#6B7684"/><stop offset="0.72" stop-color="#DCE2E9"/><stop offset="0.84" stop-color="#3F4854"/><stop offset="1" stop-color="#B8C1CC"/></linearGradient><pattern id="pkpromochromebr" width="4" height="2" patternUnits="userSpaceOnUse"><rect width="4" height=".7" fill="#fff" opacity=".14"/></pattern>
<linearGradient id="pkpromochromeseal" x1="0" y1="0" x2="1" y2="0"><stop offset="0" stop-color="#7D8896"/><stop offset="0.5" stop-color="#F1F4F8"/><stop offset="1" stop-color="#5E6977"/></linearGradient>
<linearGradient id="pkpromochromename" x1="0" y1="0" x2="0" y2="1"><stop offset="0" stop-color="#FFFFFF"/><stop offset="0.55" stop-color="#FFFFFF"/><stop offset="1" stop-color="#C9CED6"/></linearGradient>
<linearGradient id="pkpromochromeshine" x1="0" y1="0" x2="1" y2="0"><stop offset="0" stop-color="#fff" stop-opacity="0"/><stop offset="0.5" stop-color="#fff" stop-opacity="0.42"/><stop offset="1" stop-color="#fff" stop-opacity="0"/></linearGradient>
<linearGradient id="pkpromochromepuffx" x1="0" y1="0" x2="1" y2="0"><stop offset="0" stop-color="#000" stop-opacity="0.5"/><stop offset="0.1" stop-color="#000" stop-opacity="0.12"/><stop offset="0.3" stop-color="#fff" stop-opacity="0.1"/><stop offset="0.45" stop-color="#fff" stop-opacity="0.02"/><stop offset="0.8" stop-color="#000" stop-opacity="0.05"/><stop offset="0.93" stop-color="#000" stop-opacity="0.22"/><stop offset="1" stop-color="#000" stop-opacity="0.55"/></linearGradient>
<linearGradient id="pkpromochromepuffy" x1="0" y1="0" x2="0" y2="1"><stop offset="0" stop-color="#000" stop-opacity="0.45"/><stop offset="0.1" stop-color="#000" stop-opacity="0"/><stop offset="0.88" stop-color="#000" stop-opacity="0"/><stop offset="1" stop-color="#000" stop-opacity="0.5"/></linearGradient>
<pattern id="pkpromochromerib" width="3" height="20" patternUnits="userSpaceOnUse"><rect width="1.2" height="20" fill="#000" opacity=".22"/><rect x="1.6" width=".6" height="20" fill="#fff" opacity=".35"/></pattern>
<clipPath id="pkpromochromeclip"><path d="M0 5 L4.2 0 L8.5 5 L12.7 0 L16.9 5 L21.2 0 L25.4 5 L29.6 0 L33.8 5 L38.1 0 L42.3 5 L46.5 0 L50.8 5 L55.0 0 L59.2 5 L63.5 0 L67.7 5 L71.9 0 L76.2 5 L80.4 0 L84.6 5 L88.8 0 L93.1 5 L97.3 0 L101.5 5 L105.8 0 L110.0 5 L114.2 0 L118.5 5 L122.7 0 L126.9 5 L131.2 0 L135.4 5 L139.6 0 L143.8 5 L148.1 0 L152.3 5 L156.5 0 L160.8 5 L165.0 0 L169.2 5 L173.5 0 L177.7 5 L181.9 0 L186.2 5 L190.4 0 L194.6 5 L198.8 0 L203.1 5 L207.3 0 L211.5 5 L215.8 0 L220.0 5 L220 347 L215.8 352 L211.5 347 L207.3 352 L203.1 347 L198.8 352 L194.6 347 L190.4 352 L186.2 347 L181.9 352 L177.7 347 L173.5 352 L169.2 347 L165.0 352 L160.8 347 L156.5 352 L152.3 347 L148.1 352 L143.8 347 L139.6 352 L135.4 347 L131.2 352 L126.9 347 L122.7 352 L118.5 347 L114.2 352 L110.0 347 L105.8 352 L101.5 347 L97.3 352 L93.1 347 L88.8 352 L84.6 347 L80.4 352 L76.2 347 L71.9 352 L67.7 347 L63.5 352 L59.2 347 L55.0 352 L50.8 347 L46.5 352 L42.3 347 L38.1 352 L33.8 347 L29.6 352 L25.4 347 L21.2 352 L16.9 347 L12.7 352 L8.5 347 L4.2 352 L0.0 347 Z"/></clipPath>
</defs>
<g clip-path="url(#pkpromochromeclip)">
<rect width="220" height="352" fill="url(#pkpromochromem)"/><rect width="220" height="352" fill="url(#pkpromochromebr)"/>
<path d="M-20 90 L240 20 L240 44 L-20 114Z M-20 300 L240 230 L240 238 L-20 308Z" fill="#fff" opacity=".22"/>
<path d="M-20 150 L240 80 L240 120 L-20 190Z" fill="#1E242C" opacity=".18"/>
<text x="110" y="190" text-anchor="middle" font-family="'Barlow Condensed','Arial Narrow',Impact,sans-serif" font-style="italic" font-weight="900" font-size="150" letter-spacing="-5" textLength="124" lengthAdjust="spacingAndGlyphs" dx="4" dy="6" fill="#000" fill-opacity=".5" stroke="#000" stroke-opacity=".5" stroke-width="9" stroke-linejoin="round">20</text>
<text x="110" y="190" text-anchor="middle" font-family="'Barlow Condensed','Arial Narrow',Impact,sans-serif" font-style="italic" font-weight="900" font-size="150" letter-spacing="-5" textLength="124" lengthAdjust="spacingAndGlyphs" fill="#FFFFFF" stroke="#0a0a0f" stroke-width="9" stroke-linejoin="round" paint-order="stroke">20</text>
<text x="14" y="33" font-family="'Barlow Condensed','Arial Narrow',Impact,sans-serif" font-weight="900" font-style="italic" font-size="12" letter-spacing="1.4" fill="#1B2129">SHINYPULL</text>
<text x="206" y="33" text-anchor="end" font-family="'Barlow Condensed','Arial Narrow',Impact,sans-serif" font-weight="800" font-style="italic" font-size="10.5" letter-spacing="1.6" fill="#1B2129" fill-opacity=".8">TEAR HERE</text>
<line x1="0" y1="38" x2="220" y2="38" stroke="#1B2129" stroke-opacity=".45" stroke-width="1.2" stroke-dasharray="5 4"/>
<rect x="0" y="206" width="220" height="64" fill="#0a0a0f" fill-opacity=".92"/>
<rect x="0" y="206" width="220" height="2" fill="#C7D0DA"/><rect x="0" y="268" width="220" height="2" fill="#C7D0DA"/>
<text x="110" y="246.8" text-anchor="middle" font-family="'Barlow Condensed','Arial Narrow',Impact,sans-serif" font-style="italic" font-weight="900" font-size="44" letter-spacing=".5" fill="url(#pkpromochromename)" textLength="121.44000000000001" lengthAdjust="spacingAndGlyphs">CHROME</text>
<text x="110" y="262" text-anchor="middle" font-family="'Barlow Condensed','Arial Narrow',Impact,sans-serif" font-style="italic" font-weight="800" font-size="11.5" letter-spacing="2.4" fill="#fff" fill-opacity=".8">3 ITEMS · SEASON 1</text>
<text x="16" y="318" font-family="'Barlow Condensed','Arial Narrow',Impact,sans-serif" font-style="italic" font-weight="900" font-size="15" letter-spacing="1.2" fill="#1B2129">LV 20 PACK</text>
<g transform="translate(170 288) scale(.36)"><rect x="4" y="4" width="92" height="92" rx="18" fill="#0a0a0f" fill-opacity=".85"/><defs><linearGradient id="pkpromochromemkf" x1="0" y1="0" x2="1" y2="1"><stop offset="0" stop-color="#FFD76A"/><stop offset=".35" stop-color="#FFF3C4"/><stop offset=".6" stop-color="#C084FC"/><stop offset="1" stop-color="#5EC8FF"/></linearGradient></defs>
<rect x="32" y="53" width="9" height="28" rx="3" fill="url(#pkpromochromemkf)"/>
<rect x="45.5" y="39" width="9" height="42" rx="3" fill="url(#pkpromochromemkf)"/>
<rect x="59" y="23" width="9" height="58" rx="3" fill="url(#pkpromochromemkf)"/></g>
<rect y="0" width="220" height="20" fill="url(#pkpromochromeseal)"/><rect y="0" width="220" height="20" fill="url(#pkpromochromerib)"/>
<rect y="332" width="220" height="20" fill="url(#pkpromochromeseal)"/><rect y="332" width="220" height="20" fill="url(#pkpromochromerib)"/>
<rect y="20" width="220" height="1" fill="#000" opacity=".3"/><rect y="331" width="220" height="1" fill="#000" opacity=".3"/>
<rect width="220" height="352" fill="url(#pkpromochromepuffx)"/>
<rect width="220" height="352" fill="url(#pkpromochromepuffy)"/>
<rect x="5" y="20" width="1.2" height="312" fill="#fff" opacity=".35"/>

</g>
<path d="M0 5 L4.2 0 L8.5 5 L12.7 0 L16.9 5 L21.2 0 L25.4 5 L29.6 0 L33.8 5 L38.1 0 L42.3 5 L46.5 0 L50.8 5 L55.0 0 L59.2 5 L63.5 0 L67.7 5 L71.9 0 L76.2 5 L80.4 0 L84.6 5 L88.8 0 L93.1 5 L97.3 0 L101.5 5 L105.8 0 L110.0 5 L114.2 0 L118.5 5 L122.7 0 L126.9 5 L131.2 0 L135.4 5 L139.6 0 L143.8 5 L148.1 0 L152.3 5 L156.5 0 L160.8 5 L165.0 0 L169.2 5 L173.5 0 L177.7 5 L181.9 0 L186.2 5 L190.4 0 L194.6 5 L198.8 0 L203.1 5 L207.3 0 L211.5 5 L215.8 0 L220.0 5 L220 347 L215.8 352 L211.5 347 L207.3 352 L203.1 347 L198.8 352 L194.6 347 L190.4 352 L186.2 347 L181.9 352 L177.7 347 L173.5 352 L169.2 347 L165.0 352 L160.8 347 L156.5 352 L152.3 347 L148.1 352 L143.8 347 L139.6 352 L135.4 347 L131.2 352 L126.9 347 L122.7 352 L118.5 347 L114.2 352 L110.0 347 L105.8 352 L101.5 347 L97.3 352 L93.1 347 L88.8 352 L84.6 347 L80.4 352 L76.2 347 L71.9 352 L67.7 347 L63.5 352 L59.2 347 L55.0 352 L50.8 347 L46.5 352 L42.3 347 L38.1 352 L33.8 347 L29.6 352 L25.4 347 L21.2 352 L16.9 347 L12.7 352 L8.5 347 L4.2 352 L0.0 347 Z" fill="none" stroke="#fff" stroke-opacity=".22"/>
</svg></g><g transform="rotate(10 510 280)"><svg x="395" y="96" width="230" height="368" xmlns="http://www.w3.org/2000/svg" viewBox="0 0 220 352" role="img" aria-label="Obsidian pack, level 70">
<defs>
<linearGradient id="pkpromoobsidianm" x1="0" y1="0" x2="1" y2="1"><stop offset="0" stop-color="#1C1C22"/><stop offset="0.35" stop-color="#0B0B0E"/><stop offset="0.5" stop-color="#2A2A33"/><stop offset="0.62" stop-color="#09090B"/><stop offset="1" stop-color="#141418"/></linearGradient>
<linearGradient id="pkpromoobsidianseal" x1="0" y1="0" x2="1" y2="0"><stop offset="0" stop-color="#18181B"/><stop offset="0.5" stop-color="#3F3F46"/><stop offset="1" stop-color="#09090B"/></linearGradient>
<linearGradient id="pkpromoobsidianname" x1="0" y1="0" x2="0" y2="1"><stop offset="0" stop-color="#FFFFFF"/><stop offset="0.55" stop-color="#FFFFFF"/><stop offset="1" stop-color="#C9CED6"/></linearGradient>
<linearGradient id="pkpromoobsidianshine" x1="0" y1="0" x2="1" y2="0"><stop offset="0" stop-color="#fff" stop-opacity="0"/><stop offset="0.5" stop-color="#fff" stop-opacity="0.42"/><stop offset="1" stop-color="#fff" stop-opacity="0"/></linearGradient>
<linearGradient id="pkpromoobsidianpuffx" x1="0" y1="0" x2="1" y2="0"><stop offset="0" stop-color="#000" stop-opacity="0.5"/><stop offset="0.1" stop-color="#000" stop-opacity="0.12"/><stop offset="0.3" stop-color="#fff" stop-opacity="0.1"/><stop offset="0.45" stop-color="#fff" stop-opacity="0.02"/><stop offset="0.8" stop-color="#000" stop-opacity="0.05"/><stop offset="0.93" stop-color="#000" stop-opacity="0.22"/><stop offset="1" stop-color="#000" stop-opacity="0.55"/></linearGradient>
<linearGradient id="pkpromoobsidianpuffy" x1="0" y1="0" x2="0" y2="1"><stop offset="0" stop-color="#000" stop-opacity="0.45"/><stop offset="0.1" stop-color="#000" stop-opacity="0"/><stop offset="0.88" stop-color="#000" stop-opacity="0"/><stop offset="1" stop-color="#000" stop-opacity="0.5"/></linearGradient>
<pattern id="pkpromoobsidianrib" width="3" height="20" patternUnits="userSpaceOnUse"><rect width="1.2" height="20" fill="#000" opacity=".22"/><rect x="1.6" width=".6" height="20" fill="#fff" opacity=".35"/></pattern>
<clipPath id="pkpromoobsidianclip"><path d="M0 5 L4.2 0 L8.5 5 L12.7 0 L16.9 5 L21.2 0 L25.4 5 L29.6 0 L33.8 5 L38.1 0 L42.3 5 L46.5 0 L50.8 5 L55.0 0 L59.2 5 L63.5 0 L67.7 5 L71.9 0 L76.2 5 L80.4 0 L84.6 5 L88.8 0 L93.1 5 L97.3 0 L101.5 5 L105.8 0 L110.0 5 L114.2 0 L118.5 5 L122.7 0 L126.9 5 L131.2 0 L135.4 5 L139.6 0 L143.8 5 L148.1 0 L152.3 5 L156.5 0 L160.8 5 L165.0 0 L169.2 5 L173.5 0 L177.7 5 L181.9 0 L186.2 5 L190.4 0 L194.6 5 L198.8 0 L203.1 5 L207.3 0 L211.5 5 L215.8 0 L220.0 5 L220 347 L215.8 352 L211.5 347 L207.3 352 L203.1 347 L198.8 352 L194.6 347 L190.4 352 L186.2 347 L181.9 352 L177.7 347 L173.5 352 L169.2 347 L165.0 352 L160.8 347 L156.5 352 L152.3 347 L148.1 352 L143.8 347 L139.6 352 L135.4 347 L131.2 352 L126.9 347 L122.7 352 L118.5 347 L114.2 352 L110.0 347 L105.8 352 L101.5 347 L97.3 352 L93.1 347 L88.8 352 L84.6 347 L80.4 352 L76.2 347 L71.9 352 L67.7 347 L63.5 352 L59.2 347 L55.0 352 L50.8 347 L46.5 352 L42.3 347 L38.1 352 L33.8 347 L29.6 352 L25.4 347 L21.2 352 L16.9 347 L12.7 352 L8.5 347 L4.2 352 L0.0 347 Z"/></clipPath>
</defs>
<g clip-path="url(#pkpromoobsidianclip)">
<rect width="220" height="352" fill="url(#pkpromoobsidianm)"/>
<path d="M-10 40 L230 -30 L230 10 L-10 80Z" fill="#fff" opacity=".07"/>
<g fill="none" stroke-linecap="round" stroke-linejoin="round"><g stroke="#EA580C"><path d="M63.9 137.4 L52.3 150.0 L44.5 165.2 L36.7 180.5" stroke-width="1.6"/><path d="M67.6 155.7 L77.8 157.3 L88.0 156.2 L98.3 156.4 L107.1 161.6 L117.4 162.1" stroke-width="1.6"/><path d="M28.8 73.5 L41.9 86.9 L53.1 101.9 L56.3 120.3 L63.9 137.4 L67.6 155.7" stroke-width="1.6"/><path d="M95.8 130.6 L92.7 143.1 L84.8 153.2 L78.5 164.4 L71.6 175.3" stroke-width="1.6"/><path d="M74.1 121.7 L95.8 130.6 L116.2 141.8 L137.9 150.6 L154.9 166.7" stroke-width="1.6"/><path d="M15.3 171.5 L5.1 170.0 L-5.0 167.9 L-12.6 160.9 L-21.2 155.3 L-31.2 152.9" stroke-width="1.6"/><path d="M-7.7 192.6 L-10.1 205.2 L-16.8 216.2 L-19.2 228.8 L-24.2 240.7" stroke-width="1.6"/><path d="M75.5 155.7 L45.8 165.0 L15.3 171.5 L-7.7 192.6" stroke-width="1.6"/><path d="M-5.0 70.0 L28.8 73.5 L57.2 92.3 L74.1 121.7 L75.5 155.7 L81.7 189.1" stroke-width="2.8"/><path d="M141.2 156.8 L132.7 174.0 L133.0 193.2 L133.8 212.3" stroke-width="1.6"/><path d="M100.2 163.0 L91.5 155.4 L80.6 152.0 L69.2 153.8 L57.9 151.5 L46.7 149.0" stroke-width="1.6"/><path d="M199.9 148.5 L179.8 142.5 L159.3 146.4 L141.2 156.8 L121.1 162.5 L100.2 163.0" stroke-width="1.6"/><path d="M137.9 237.8 L124.4 242.7 L111.4 248.7 L102.2 259.8 L93.1 270.9" stroke-width="1.6"/><path d="M134.7 185.8 L137.6 211.7 L137.9 237.8 L128.4 262.2 L115.8 285.1" stroke-width="1.6"/><path d="M104.1 208.2 L78.0 206.9 L55.7 193.3 L43.1 170.4 L29.1 148.4" stroke-width="1.6"/><path d="M93.8 268.1 L75.9 275.0 L56.8 273.7 L37.6 273.7" stroke-width="1.6"/><path d="M88.0 242.7 L93.8 268.1 L94.7 294.3 L101.1 319.6 L107.3 345.0" stroke-width="1.6"/><path d="M225.0 120.0 L199.9 148.5 L170.3 172.3 L134.7 185.8 L104.1 208.2 L88.0 242.7" stroke-width="2.8"/><path d="M48.3 259.8 L61.0 248.3 L67.0 232.2 L77.0 218.3" stroke-width="1.6"/><path d="M15.2 198.4 L16.8 188.2 L14.3 178.2 L12.4 168.1 L11.2 157.9 L6.0 149.0" stroke-width="1.6"/><path d="M58.3 280.9 L48.3 259.8 L34.6 240.9 L25.7 219.3 L15.2 198.4" stroke-width="1.6"/><path d="M30.0 360.0 L50.3 322.7 L58.3 280.9 L82.1 245.7 L96.7 205.8" stroke-width="2.8"/><path d="M65.3 49.5 L64.9 58.6 L69.1 66.6 L71.4 75.4 L74.1 84.1 L78.6 92.0" stroke-width="1.6"/><path d="M92.8 48.4 L65.3 49.5 L40.7 37.3 L22.3 16.7" stroke-width="1.6"/><path d="M78.5 88.9 L88.6 94.1 L97.4 101.2 L103.8 110.6 L112.2 118.2" stroke-width="1.6"/><path d="M84.2 104.4 L92.7 111.9 L102.3 118.0 L107.4 128.1 L112.0 138.5" stroke-width="1.6"/><path d="M106.0 127.7 L107.9 136.5 L106.1 145.4 L106.4 154.5 L106.6 163.6 L107.6 172.6" stroke-width="1.6"/><path d="M75.2 72.8 L78.5 88.9 L84.2 104.4 L92.0 119.0 L106.0 127.7 L114.6 141.7" stroke-width="1.6"/><path d="M59.2 98.1 L34.6 110.5 L18.9 133.1 L13.7 160.1" stroke-width="1.6"/><path d="M120.0 -5.0 L105.9 21.5 L92.8 48.4 L75.2 72.8 L59.2 98.1 L33.4 113.4" stroke-width="2.8"/><path d="M225.0 300.0 L177.6 284.0 L141.8 249.1 L93.4 236.5" stroke-width="2.8"/></g><g stroke="#FDE68A"><path d="M63.9 137.4 L52.3 150.0 L44.5 165.2 L36.7 180.5" stroke-width="0.5"/><path d="M67.6 155.7 L77.8 157.3 L88.0 156.2 L98.3 156.4 L107.1 161.6 L117.4 162.1" stroke-width="0.5"/><path d="M28.8 73.5 L41.9 86.9 L53.1 101.9 L56.3 120.3 L63.9 137.4 L67.6 155.7" stroke-width="0.5"/><path d="M95.8 130.6 L92.7 143.1 L84.8 153.2 L78.5 164.4 L71.6 175.3" stroke-width="0.5"/><path d="M74.1 121.7 L95.8 130.6 L116.2 141.8 L137.9 150.6 L154.9 166.7" stroke-width="0.5"/><path d="M15.3 171.5 L5.1 170.0 L-5.0 167.9 L-12.6 160.9 L-21.2 155.3 L-31.2 152.9" stroke-width="0.5"/><path d="M-7.7 192.6 L-10.1 205.2 L-16.8 216.2 L-19.2 228.8 L-24.2 240.7" stroke-width="0.5"/><path d="M75.5 155.7 L45.8 165.0 L15.3 171.5 L-7.7 192.6" stroke-width="0.5"/><path d="M-5.0 70.0 L28.8 73.5 L57.2 92.3 L74.1 121.7 L75.5 155.7 L81.7 189.1" stroke-width="1"/><path d="M141.2 156.8 L132.7 174.0 L133.0 193.2 L133.8 212.3" stroke-width="0.5"/><path d="M100.2 163.0 L91.5 155.4 L80.6 152.0 L69.2 153.8 L57.9 151.5 L46.7 149.0" stroke-width="0.5"/><path d="M199.9 148.5 L179.8 142.5 L159.3 146.4 L141.2 156.8 L121.1 162.5 L100.2 163.0" stroke-width="0.5"/><path d="M137.9 237.8 L124.4 242.7 L111.4 248.7 L102.2 259.8 L93.1 270.9" stroke-width="0.5"/><path d="M134.7 185.8 L137.6 211.7 L137.9 237.8 L128.4 262.2 L115.8 285.1" stroke-width="0.5"/><path d="M104.1 208.2 L78.0 206.9 L55.7 193.3 L43.1 170.4 L29.1 148.4" stroke-width="0.5"/><path d="M93.8 268.1 L75.9 275.0 L56.8 273.7 L37.6 273.7" stroke-width="0.5"/><path d="M88.0 242.7 L93.8 268.1 L94.7 294.3 L101.1 319.6 L107.3 345.0" stroke-width="0.5"/><path d="M225.0 120.0 L199.9 148.5 L170.3 172.3 L134.7 185.8 L104.1 208.2 L88.0 242.7" stroke-width="1"/><path d="M48.3 259.8 L61.0 248.3 L67.0 232.2 L77.0 218.3" stroke-width="0.5"/><path d="M15.2 198.4 L16.8 188.2 L14.3 178.2 L12.4 168.1 L11.2 157.9 L6.0 149.0" stroke-width="0.5"/><path d="M58.3 280.9 L48.3 259.8 L34.6 240.9 L25.7 219.3 L15.2 198.4" stroke-width="0.5"/><path d="M30.0 360.0 L50.3 322.7 L58.3 280.9 L82.1 245.7 L96.7 205.8" stroke-width="1"/><path d="M65.3 49.5 L64.9 58.6 L69.1 66.6 L71.4 75.4 L74.1 84.1 L78.6 92.0" stroke-width="0.5"/><path d="M92.8 48.4 L65.3 49.5 L40.7 37.3 L22.3 16.7" stroke-width="0.5"/><path d="M78.5 88.9 L88.6 94.1 L97.4 101.2 L103.8 110.6 L112.2 118.2" stroke-width="0.5"/><path d="M84.2 104.4 L92.7 111.9 L102.3 118.0 L107.4 128.1 L112.0 138.5" stroke-width="0.5"/><path d="M106.0 127.7 L107.9 136.5 L106.1 145.4 L106.4 154.5 L106.6 163.6 L107.6 172.6" stroke-width="0.5"/><path d="M75.2 72.8 L78.5 88.9 L84.2 104.4 L92.0 119.0 L106.0 127.7 L114.6 141.7" stroke-width="0.5"/><path d="M59.2 98.1 L34.6 110.5 L18.9 133.1 L13.7 160.1" stroke-width="0.5"/><path d="M120.0 -5.0 L105.9 21.5 L92.8 48.4 L75.2 72.8 L59.2 98.1 L33.4 113.4" stroke-width="1"/><path d="M225.0 300.0 L177.6 284.0 L141.8 249.1 L93.4 236.5" stroke-width="1"/></g></g>
<text x="110" y="190" text-anchor="middle" font-family="'Barlow Condensed','Arial Narrow',Impact,sans-serif" font-style="italic" font-weight="900" font-size="150" letter-spacing="-5" textLength="124" lengthAdjust="spacingAndGlyphs" dx="4" dy="6" fill="#000" fill-opacity=".5" stroke="#000" stroke-opacity=".5" stroke-width="9" stroke-linejoin="round">70</text>
<text x="110" y="190" text-anchor="middle" font-family="'Barlow Condensed','Arial Narrow',Impact,sans-serif" font-style="italic" font-weight="900" font-size="150" letter-spacing="-5" textLength="124" lengthAdjust="spacingAndGlyphs" fill="#FB923C" stroke="#0a0a0f" stroke-width="9" stroke-linejoin="round" paint-order="stroke">70</text>
<text x="14" y="33" font-family="'Barlow Condensed','Arial Narrow',Impact,sans-serif" font-weight="900" font-style="italic" font-size="12" letter-spacing="1.4" fill="#FDBA74">SHINYPULL</text>
<text x="206" y="33" text-anchor="end" font-family="'Barlow Condensed','Arial Narrow',Impact,sans-serif" font-weight="800" font-style="italic" font-size="10.5" letter-spacing="1.6" fill="#FDBA74" fill-opacity=".8">TEAR HERE</text>
<line x1="0" y1="38" x2="220" y2="38" stroke="#FDBA74" stroke-opacity=".45" stroke-width="1.2" stroke-dasharray="5 4"/>
<rect x="0" y="206" width="220" height="64" fill="#0a0a0f" fill-opacity=".92"/>
<rect x="0" y="206" width="220" height="2" fill="#71717A"/><rect x="0" y="268" width="220" height="2" fill="#71717A"/>
<text x="110" y="246.8" text-anchor="middle" font-family="'Barlow Condensed','Arial Narrow',Impact,sans-serif" font-style="italic" font-weight="900" font-size="44" letter-spacing=".5" fill="url(#pkpromoobsidianname)" textLength="161.92000000000002" lengthAdjust="spacingAndGlyphs">OBSIDIAN</text>
<text x="110" y="262" text-anchor="middle" font-family="'Barlow Condensed','Arial Narrow',Impact,sans-serif" font-style="italic" font-weight="800" font-size="11.5" letter-spacing="2.4" fill="#fff" fill-opacity=".8">3 ITEMS · SEASON 1</text>
<text x="16" y="318" font-family="'Barlow Condensed','Arial Narrow',Impact,sans-serif" font-style="italic" font-weight="900" font-size="15" letter-spacing="1.2" fill="#FDBA74">LV 70 PACK</text>
<g transform="translate(170 288) scale(.36)"><rect x="4" y="4" width="92" height="92" rx="18" fill="#0a0a0f" fill-opacity=".85"/><defs><linearGradient id="pkpromoobsidianmkf" x1="0" y1="0" x2="1" y2="1"><stop offset="0" stop-color="#FFD76A"/><stop offset=".35" stop-color="#FFF3C4"/><stop offset=".6" stop-color="#C084FC"/><stop offset="1" stop-color="#5EC8FF"/></linearGradient></defs>
<rect x="32" y="53" width="9" height="28" rx="3" fill="url(#pkpromoobsidianmkf)"/>
<rect x="45.5" y="39" width="9" height="42" rx="3" fill="url(#pkpromoobsidianmkf)"/>
<rect x="59" y="23" width="9" height="58" rx="3" fill="url(#pkpromoobsidianmkf)"/></g>
<rect y="0" width="220" height="20" fill="url(#pkpromoobsidianseal)"/><rect y="0" width="220" height="20" fill="url(#pkpromoobsidianrib)"/>
<rect y="332" width="220" height="20" fill="url(#pkpromoobsidianseal)"/><rect y="332" width="220" height="20" fill="url(#pkpromoobsidianrib)"/>
<rect y="20" width="220" height="1" fill="#000" opacity=".3"/><rect y="331" width="220" height="1" fill="#000" opacity=".3"/>
<rect width="220" height="352" fill="url(#pkpromoobsidianpuffx)"/>
<rect width="220" height="352" fill="url(#pkpromoobsidianpuffy)"/>
<rect x="5" y="20" width="1.2" height="312" fill="#fff" opacity=".35"/>

</g>
<path d="M0 5 L4.2 0 L8.5 5 L12.7 0 L16.9 5 L21.2 0 L25.4 5 L29.6 0 L33.8 5 L38.1 0 L42.3 5 L46.5 0 L50.8 5 L55.0 0 L59.2 5 L63.5 0 L67.7 5 L71.9 0 L76.2 5 L80.4 0 L84.6 5 L88.8 0 L93.1 5 L97.3 0 L101.5 5 L105.8 0 L110.0 5 L114.2 0 L118.5 5 L122.7 0 L126.9 5 L131.2 0 L135.4 5 L139.6 0 L143.8 5 L148.1 0 L152.3 5 L156.5 0 L160.8 5 L165.0 0 L169.2 5 L173.5 0 L177.7 5 L181.9 0 L186.2 5 L190.4 0 L194.6 5 L198.8 0 L203.1 5 L207.3 0 L211.5 5 L215.8 0 L220.0 5 L220 347 L215.8 352 L211.5 347 L207.3 352 L203.1 347 L198.8 352 L194.6 347 L190.4 352 L186.2 347 L181.9 352 L177.7 347 L173.5 352 L169.2 347 L165.0 352 L160.8 347 L156.5 352 L152.3 347 L148.1 352 L143.8 347 L139.6 352 L135.4 347 L131.2 352 L126.9 347 L122.7 352 L118.5 347 L114.2 352 L110.0 347 L105.8 352 L101.5 347 L97.3 352 L93.1 347 L88.8 352 L84.6 347 L80.4 352 L76.2 347 L71.9 352 L67.7 347 L63.5 352 L59.2 347 L55.0 352 L50.8 347 L46.5 352 L42.3 347 L38.1 352 L33.8 347 L29.6 352 L25.4 347 L21.2 352 L16.9 347 L12.7 352 L8.5 347 L4.2 352 L0.0 347 Z" fill="none" stroke="#fff" stroke-opacity=".22"/>
</svg></g><g transform="rotate(0 360 260)"><svg x="245" y="76" width="230" height="368" xmlns="http://www.w3.org/2000/svg" viewBox="0 0 220 352" role="img" aria-label="The Final Pull pack, level 99">
<defs>
<linearGradient id="pkpromofinalm" x1="0" y1="0" x2=".5" y2="1"><stop offset="0" stop-color="#1A1406"/><stop offset="0.5" stop-color="#0B0904"/><stop offset="1" stop-color="#221807"/></linearGradient><linearGradient id="pkpromofinalau" x1="0" y1="0" x2="1" y2="1"><stop offset="0" stop-color="#FFF3C4"/><stop offset="0.3" stop-color="#F5C451"/><stop offset="0.55" stop-color="#9A6B12"/><stop offset="0.8" stop-color="#FFD76A"/><stop offset="1" stop-color="#B7861F"/></linearGradient>
<linearGradient id="pkpromofinalseal" x1="0" y1="0" x2="1" y2="0"><stop offset="0" stop-color="#8A5E0F"/><stop offset="0.5" stop-color="#FFE9A3"/><stop offset="1" stop-color="#7A520C"/></linearGradient>
<linearGradient id="pkpromofinalname" x1="0" y1="0" x2="0" y2="1"><stop offset="0" stop-color="#FFFFFF"/><stop offset="0.55" stop-color="#FFFFFF"/><stop offset="1" stop-color="#C9CED6"/></linearGradient>
<linearGradient id="pkpromofinalshine" x1="0" y1="0" x2="1" y2="0"><stop offset="0" stop-color="#fff" stop-opacity="0"/><stop offset="0.5" stop-color="#fff" stop-opacity="0.42"/><stop offset="1" stop-color="#fff" stop-opacity="0"/></linearGradient>
<linearGradient id="pkpromofinalpuffx" x1="0" y1="0" x2="1" y2="0"><stop offset="0" stop-color="#000" stop-opacity="0.5"/><stop offset="0.1" stop-color="#000" stop-opacity="0.12"/><stop offset="0.3" stop-color="#fff" stop-opacity="0.1"/><stop offset="0.45" stop-color="#fff" stop-opacity="0.02"/><stop offset="0.8" stop-color="#000" stop-opacity="0.05"/><stop offset="0.93" stop-color="#000" stop-opacity="0.22"/><stop offset="1" stop-color="#000" stop-opacity="0.55"/></linearGradient>
<linearGradient id="pkpromofinalpuffy" x1="0" y1="0" x2="0" y2="1"><stop offset="0" stop-color="#000" stop-opacity="0.45"/><stop offset="0.1" stop-color="#000" stop-opacity="0"/><stop offset="0.88" stop-color="#000" stop-opacity="0"/><stop offset="1" stop-color="#000" stop-opacity="0.5"/></linearGradient>
<pattern id="pkpromofinalrib" width="3" height="20" patternUnits="userSpaceOnUse"><rect width="1.2" height="20" fill="#000" opacity=".22"/><rect x="1.6" width=".6" height="20" fill="#fff" opacity=".35"/></pattern>
<clipPath id="pkpromofinalclip"><path d="M0 5 L4.2 0 L8.5 5 L12.7 0 L16.9 5 L21.2 0 L25.4 5 L29.6 0 L33.8 5 L38.1 0 L42.3 5 L46.5 0 L50.8 5 L55.0 0 L59.2 5 L63.5 0 L67.7 5 L71.9 0 L76.2 5 L80.4 0 L84.6 5 L88.8 0 L93.1 5 L97.3 0 L101.5 5 L105.8 0 L110.0 5 L114.2 0 L118.5 5 L122.7 0 L126.9 5 L131.2 0 L135.4 5 L139.6 0 L143.8 5 L148.1 0 L152.3 5 L156.5 0 L160.8 5 L165.0 0 L169.2 5 L173.5 0 L177.7 5 L181.9 0 L186.2 5 L190.4 0 L194.6 5 L198.8 0 L203.1 5 L207.3 0 L211.5 5 L215.8 0 L220.0 5 L220 347 L215.8 352 L211.5 347 L207.3 352 L203.1 347 L198.8 352 L194.6 347 L190.4 352 L186.2 347 L181.9 352 L177.7 347 L173.5 352 L169.2 347 L165.0 352 L160.8 347 L156.5 352 L152.3 347 L148.1 352 L143.8 347 L139.6 352 L135.4 347 L131.2 352 L126.9 347 L122.7 352 L118.5 347 L114.2 352 L110.0 347 L105.8 352 L101.5 347 L97.3 352 L93.1 347 L88.8 352 L84.6 347 L80.4 352 L76.2 347 L71.9 352 L67.7 347 L63.5 352 L59.2 347 L55.0 352 L50.8 347 L46.5 352 L42.3 347 L38.1 352 L33.8 347 L29.6 352 L25.4 347 L21.2 352 L16.9 347 L12.7 352 L8.5 347 L4.2 352 L0.0 347 Z"/></clipPath>
</defs>
<g clip-path="url(#pkpromofinalclip)">
<rect width="220" height="352" fill="url(#pkpromofinalm)"/>
<g fill="#F5C451" opacity=".26"><path d="M110 150L410.0 150.0L409.4 169.6Z"/><path d="M110 150L399.8 227.6L394.1 246.4Z"/><path d="M110 150L369.8 300.0L359.4 316.7Z"/><path d="M110 150L322.1 362.1L307.8 375.6Z"/><path d="M110 150L260.0 409.8L242.7 419.1Z"/><path d="M110 150L187.6 439.8L168.5 444.2Z"/><path d="M110 150L110.0 450.0L90.4 449.4Z"/><path d="M110 150L32.4 439.8L13.6 434.1Z"/><path d="M110 150L-40.0 409.8L-56.7 399.4Z"/><path d="M110 150L-102.1 362.1L-115.6 347.8Z"/><path d="M110 150L-149.8 300.0L-159.1 282.7Z"/><path d="M110 150L-179.8 227.6L-184.2 208.5Z"/><path d="M110 150L-190.0 150.0L-189.4 130.4Z"/><path d="M110 150L-179.8 72.4L-174.1 53.6Z"/><path d="M110 150L-149.8 -0.0L-139.4 -16.7Z"/><path d="M110 150L-102.1 -62.1L-87.8 -75.6Z"/><path d="M110 150L-40.0 -109.8L-22.7 -119.1Z"/><path d="M110 150L32.4 -139.8L51.5 -144.2Z"/><path d="M110 150L110.0 -150.0L129.6 -149.4Z"/><path d="M110 150L187.6 -139.8L206.4 -134.1Z"/><path d="M110 150L260.0 -109.8L276.7 -99.4Z"/><path d="M110 150L322.1 -62.1L335.6 -47.8Z"/><path d="M110 150L369.8 -0.0L379.1 17.3Z"/><path d="M110 150L399.8 72.4L404.2 91.5Z"/></g>
<rect x="7" y="44" width="206" height="281" rx="4" fill="none" stroke="url(#pkpromofinalau)" stroke-width="3"/>
<rect x="13" y="50" width="194" height="269" rx="3" fill="none" stroke="url(#pkpromofinalau)" stroke-width="1"/>
<g transform="translate(8 45)"><path d="M4 4 C 30 4, 30 30, 12 26 C 2 24, 6 12, 14 16 M4 4 C 4 30, 30 30, 26 12" fill="none" stroke="url(#pkpromofinalau)" stroke-width="2"/><circle cx="14" cy="14" r="3.4" fill="#B91C1C" stroke="url(#pkpromofinalau)" stroke-width="1"/><circle cx="13" cy="13" r="1" fill="#FECACA"/></g><g transform="translate(212 45) scale(-1 1)"><path d="M4 4 C 30 4, 30 30, 12 26 C 2 24, 6 12, 14 16 M4 4 C 4 30, 30 30, 26 12" fill="none" stroke="url(#pkpromofinalau)" stroke-width="2"/><circle cx="14" cy="14" r="3.4" fill="#B91C1C" stroke="url(#pkpromofinalau)" stroke-width="1"/><circle cx="13" cy="13" r="1" fill="#FECACA"/></g>
<path d="M124 321L128 325L124 329L120 325Z" fill="#DC2626" stroke="#FDE68A" stroke-width=".8"/><path d="M124 321L128 325L124 325Z" fill="#FCA5A5" opacity=".8"/><path d="M148 321L152 325L148 329L144 325Z" fill="#DC2626" stroke="#FDE68A" stroke-width=".8"/><path d="M148 321L152 325L148 325Z" fill="#FCA5A5" opacity=".8"/><path d="M172 321L176 325L172 329L168 325Z" fill="#DC2626" stroke="#FDE68A" stroke-width=".8"/><path d="M172 321L176 325L172 325Z" fill="#FCA5A5" opacity=".8"/><path d="M11 80L15 84L11 88L7 84Z" fill="#DC2626" stroke="#FDE68A" stroke-width=".8"/><path d="M11 80L15 84L11 84Z" fill="#FCA5A5" opacity=".8"/><path d="M209 80L213 84L209 88L205 84Z" fill="#DC2626" stroke="#FDE68A" stroke-width=".8"/><path d="M209 80L213 84L209 84Z" fill="#FCA5A5" opacity=".8"/><path d="M11 114L15 118L11 122L7 118Z" fill="#DC2626" stroke="#FDE68A" stroke-width=".8"/><path d="M11 114L15 118L11 118Z" fill="#FCA5A5" opacity=".8"/><path d="M209 114L213 118L209 122L205 118Z" fill="#DC2626" stroke="#FDE68A" stroke-width=".8"/><path d="M209 114L213 118L209 118Z" fill="#FCA5A5" opacity=".8"/><path d="M11 148L15 152L11 156L7 152Z" fill="#DC2626" stroke="#FDE68A" stroke-width=".8"/><path d="M11 148L15 152L11 152Z" fill="#FCA5A5" opacity=".8"/><path d="M209 148L213 152L209 156L205 152Z" fill="#DC2626" stroke="#FDE68A" stroke-width=".8"/><path d="M209 148L213 152L209 152Z" fill="#FCA5A5" opacity=".8"/><path d="M11 182L15 186L11 190L7 186Z" fill="#DC2626" stroke="#FDE68A" stroke-width=".8"/><path d="M11 182L15 186L11 186Z" fill="#FCA5A5" opacity=".8"/><path d="M209 182L213 186L209 190L205 186Z" fill="#DC2626" stroke="#FDE68A" stroke-width=".8"/><path d="M209 182L213 186L209 186Z" fill="#FCA5A5" opacity=".8"/><path d="M11 216L15 220L11 224L7 220Z" fill="#DC2626" stroke="#FDE68A" stroke-width=".8"/><path d="M11 216L15 220L11 220Z" fill="#FCA5A5" opacity=".8"/><path d="M209 216L213 220L209 224L205 220Z" fill="#DC2626" stroke="#FDE68A" stroke-width=".8"/><path d="M209 216L213 220L209 220Z" fill="#FCA5A5" opacity=".8"/><path d="M11 250L15 254L11 258L7 254Z" fill="#DC2626" stroke="#FDE68A" stroke-width=".8"/><path d="M11 250L15 254L11 254Z" fill="#FCA5A5" opacity=".8"/><path d="M209 250L213 254L209 258L205 254Z" fill="#DC2626" stroke="#FDE68A" stroke-width=".8"/><path d="M209 250L213 254L209 254Z" fill="#FCA5A5" opacity=".8"/><path d="M11 284L15 288L11 292L7 288Z" fill="#DC2626" stroke="#FDE68A" stroke-width=".8"/><path d="M11 284L15 288L11 288Z" fill="#FCA5A5" opacity=".8"/><path d="M209 284L213 288L209 292L205 288Z" fill="#DC2626" stroke="#FDE68A" stroke-width=".8"/><path d="M209 284L213 288L209 288Z" fill="#FCA5A5" opacity=".8"/>
<text x="110" y="190" text-anchor="middle" font-family="'Barlow Condensed','Arial Narrow',Impact,sans-serif" font-style="italic" font-weight="900" font-size="150" letter-spacing="-5" textLength="124" lengthAdjust="spacingAndGlyphs" dx="4" dy="6" fill="#000" fill-opacity=".5" stroke="#000" stroke-opacity=".5" stroke-width="9" stroke-linejoin="round">99</text>
<text x="110" y="190" text-anchor="middle" font-family="'Barlow Condensed','Arial Narrow',Impact,sans-serif" font-style="italic" font-weight="900" font-size="150" letter-spacing="-5" textLength="124" lengthAdjust="spacingAndGlyphs" fill="#FFD76A" stroke="#0a0a0f" stroke-width="9" stroke-linejoin="round" paint-order="stroke">99</text>
<text x="14" y="33" font-family="'Barlow Condensed','Arial Narrow',Impact,sans-serif" font-weight="900" font-style="italic" font-size="12" letter-spacing="1.4" fill="#FFE8A3">SHINYPULL</text>
<text x="206" y="33" text-anchor="end" font-family="'Barlow Condensed','Arial Narrow',Impact,sans-serif" font-weight="800" font-style="italic" font-size="10.5" letter-spacing="1.6" fill="#FFE8A3" fill-opacity=".8">TEAR HERE</text>
<line x1="0" y1="38" x2="220" y2="38" stroke="#FFE8A3" stroke-opacity=".45" stroke-width="1.2" stroke-dasharray="5 4"/>
<rect x="0" y="206" width="220" height="64" fill="#0a0a0f" fill-opacity=".92"/>
<rect x="0" y="206" width="220" height="2" fill="#FFD76A"/><rect x="0" y="268" width="220" height="2" fill="#FFD76A"/>
<text x="110" y="244" text-anchor="middle" font-family="'Barlow Condensed','Arial Narrow',Impact,sans-serif" font-style="italic" font-weight="900" font-size="30" letter-spacing=".5" fill="url(#pkpromofinalname)" textLength="193.20000000000002" lengthAdjust="spacingAndGlyphs">THE FINAL PULL</text>
<text x="110" y="262" text-anchor="middle" font-family="'Barlow Condensed','Arial Narrow',Impact,sans-serif" font-style="italic" font-weight="800" font-size="11.5" letter-spacing="2.4" fill="#fff" fill-opacity=".8">5 ITEMS · SEASON 1</text>
<text x="16" y="318" font-family="'Barlow Condensed','Arial Narrow',Impact,sans-serif" font-style="italic" font-weight="900" font-size="15" letter-spacing="1.2" fill="#FFE8A3">LV 99 PACK</text>
<g transform="translate(170 288) scale(.36)"><rect x="4" y="4" width="92" height="92" rx="18" fill="#0a0a0f" fill-opacity=".85"/><defs><linearGradient id="pkpromofinalmkf" x1="0" y1="0" x2="1" y2="1"><stop offset="0" stop-color="#FFD76A"/><stop offset=".35" stop-color="#FFF3C4"/><stop offset=".6" stop-color="#C084FC"/><stop offset="1" stop-color="#5EC8FF"/></linearGradient></defs>
<rect x="32" y="53" width="9" height="28" rx="3" fill="url(#pkpromofinalmkf)"/>
<rect x="45.5" y="39" width="9" height="42" rx="3" fill="url(#pkpromofinalmkf)"/>
<rect x="59" y="23" width="9" height="58" rx="3" fill="url(#pkpromofinalmkf)"/></g>
<rect y="0" width="220" height="20" fill="url(#pkpromofinalseal)"/><rect y="0" width="220" height="20" fill="url(#pkpromofinalrib)"/>
<rect y="332" width="220" height="20" fill="url(#pkpromofinalseal)"/><rect y="332" width="220" height="20" fill="url(#pkpromofinalrib)"/>
<rect y="20" width="220" height="1" fill="#000" opacity=".3"/><rect y="331" width="220" height="1" fill="#000" opacity=".3"/>
<rect width="220" height="352" fill="url(#pkpromofinalpuffx)"/>
<rect width="220" height="352" fill="url(#pkpromofinalpuffy)"/>
<rect x="5" y="20" width="1.2" height="312" fill="#fff" opacity=".35"/>

</g>
<path d="M0 5 L4.2 0 L8.5 5 L12.7 0 L16.9 5 L21.2 0 L25.4 5 L29.6 0 L33.8 5 L38.1 0 L42.3 5 L46.5 0 L50.8 5 L55.0 0 L59.2 5 L63.5 0 L67.7 5 L71.9 0 L76.2 5 L80.4 0 L84.6 5 L88.8 0 L93.1 5 L97.3 0 L101.5 5 L105.8 0 L110.0 5 L114.2 0 L118.5 5 L122.7 0 L126.9 5 L131.2 0 L135.4 5 L139.6 0 L143.8 5 L148.1 0 L152.3 5 L156.5 0 L160.8 5 L165.0 0 L169.2 5 L173.5 0 L177.7 5 L181.9 0 L186.2 5 L190.4 0 L194.6 5 L198.8 0 L203.1 5 L207.3 0 L211.5 5 L215.8 0 L220.0 5 L220 347 L215.8 352 L211.5 347 L207.3 352 L203.1 347 L198.8 352 L194.6 347 L190.4 352 L186.2 347 L181.9 352 L177.7 347 L173.5 352 L169.2 347 L165.0 352 L160.8 347 L156.5 352 L152.3 347 L148.1 352 L143.8 347 L139.6 352 L135.4 347 L131.2 352 L126.9 347 L122.7 352 L118.5 347 L114.2 352 L110.0 347 L105.8 352 L101.5 347 L97.3 352 L93.1 347 L88.8 352 L84.6 347 L80.4 352 L76.2 347 L71.9 352 L67.7 347 L63.5 352 L59.2 347 L55.0 352 L50.8 347 L46.5 352 L42.3 347 L38.1 352 L33.8 347 L29.6 352 L25.4 347 L21.2 352 L16.9 347 L12.7 352 L8.5 347 L4.2 352 L0.0 347 Z" fill="none" stroke="#fff" stroke-opacity=".22"/>
</svg></g></svg>